<?xml version="1.0" standalone="no"?>
<!DOCTYPE svg PUBLIC "-//W3C//DTD SVG 20010904//EN"
 "http://www.w3.org/TR/2001/REC-SVG-20010904/DTD/svg10.dtd">
<svg version="1.0" xmlns="http://www.w3.org/2000/svg"
 width="720.000000pt" height="720.000000pt" viewBox="0 0 720.000000 720.000000"
 preserveAspectRatio="xMidYMid meet">
<metadata>
Created by potrace 1.11, written by Peter Selinger 2001-2013
</metadata>
<g transform="translate(0.000000,720.000000) scale(0.100000,-0.100000)"
fill="#000000" stroke="none">
<path d="M1478 5782 c-58 -3 -65 -9 -60 -53 2 -12 4 -635 3 -679 0 -8 0 -116
0 -240 0 -124 0 -232 0 -240 0 -8 0 -116 0 -240 0 -124 0 -232 0 -240 0 -8 0
-116 0 -240 0 -124 1 -232 1 -240 0 -8 0 -404 0 -880 0 -476 -1 -872 -1 -880
-2 -92 0 -424 2 -426 2 -3 520 -5 587 -2 8 0 62 0 120 -1 58 0 112 0 120 0 8
1 62 1 120 0 58 0 112 0 120 0 8 1 62 1 120 0 58 0 112 0 120 0 8 1 62 1 120
0 58 0 112 0 120 0 8 0 260 1 560 0 300 0 552 1 560 1 8 0 62 0 120 -1 58 0
112 0 120 0 8 1 98 1 200 0 102 0 192 0 200 1 8 0 62 0 120 -1 58 0 112 0 120
0 8 1 98 1 200 0 102 0 192 0 200 1 8 0 65 0 125 -1 61 0 152 -1 203 -1 l92
-1 0 38 c3 223 0 4316 -2 4319 -4 3 -77 5 -118 3 -8 0 -116 0 -240 0 -124 0
-232 0 -240 0 -8 0 -116 0 -240 0 -124 0 -232 0 -240 0 -8 0 -116 0 -240 0
-124 0 -232 0 -240 0 -8 0 -404 -1 -880 -1 -476 0 -872 0 -880 0 -8 0 -116 1
-240 1 -124 0 -234 0 -245 0 -11 0 -107 0 -214 1 -107 0 -196 -2 -199 -4 -2
-3 -12 -2 -21 2 -9 4 -42 6 -73 4z"/>
</g>
</svg>
