<?xml version="1.0" encoding="utf-8"?>
<!-- Generator: Adobe Illustrator 19.2.1, SVG Export Plug-In . SVG Version: 6.00 Build 0)  -->
<svg version="1.1" id="Layer_1" xmlns="http://www.w3.org/2000/svg" xmlns:xlink="http://www.w3.org/1999/xlink" x="0px" y="0px"
	 viewBox="0 0 64 64" style="enable-background:new 0 0 64 64;" xml:space="preserve">
<style type="text/css">
	.st0{fill:none;stroke:#FFFFFF;stroke-width:2;stroke-miterlimit:10;}
	.st1{fill:none;stroke:#000000;stroke-width:2;stroke-miterlimit:10;}
</style>
<path class="st0" d="M37,32.2c1.2,0.5,2.6,0.8,4,0.8c3.3,0,6.2-1.6,8-4l12-12c1.3-1.7,2-3.8,2-6c0-5.5-4.5-10-10-10
	c-2.3,0-4.3,0.7-6,2L34,16c-1.8,1.8-3,4.3-3,7c0,1.4,0.3,2.8,0.8,4"/>
<path class="st1" d="M37,32.2"/>
<path class="st0" d="M27,31.8c-1.2-0.5-2.6-0.8-4-0.8c-2.3,0-4.3,0.7-6,2L4,46c-1.8,1.8-3,4.3-3,7c0,5.5,4.5,10,10,10
	c3.3,0,6.2-1.6,8-4l12-12c1.3-1.7,2-3.8,2-6c0-1.4-0.3-2.8-0.8-4"/>
<line class="st0" x1="23" y1="41" x2="41" y2="23"/>
</svg>
