<?xml version="1.0" encoding="utf-8"?>
<!-- Generator: Adobe Illustrator 19.2.1, SVG Export Plug-In . SVG Version: 6.00 Build 0)  -->
<svg version="1.1" id="Capa_1" xmlns="http://www.w3.org/2000/svg" xmlns:xlink="http://www.w3.org/1999/xlink" x="0px" y="0px"
	 viewBox="0 0 918.2 180" style="enable-background:new 0 0 918.2 180;" xml:space="preserve">
<style type="text/css">
	.st0{fill:#FFFFFF;enable-background:new    ;}
	.st1{opacity:0.5;fill:#FFFFFF;enable-background:new    ;}
	.st2{fill:#FFFFFF;}
</style>
<polygon class="st0" points="45.1,126 117.2,126 117.2,54 45.1,54 "/>
<path class="st1" d="M53.6,106.6"/>
<g>
	<path class="st2" d="M189.8,130.4V100L162,54.3h10l22.5,38.1l22.7-38.1h10l-28.4,45.5v30.6H189.8z"/>
	<path class="st2" d="M250.6,75.5c4.5,0,8.4,0.7,11.8,2.2c3.4,1.5,6.2,3.5,8.5,6c2.3,2.5,4,5.5,5.1,8.9c1.1,3.4,1.7,7.1,1.7,11
		c0,3.8-0.6,7.3-1.8,10.7c-1.2,3.4-3,6.4-5.3,8.9c-2.3,2.6-5.2,4.6-8.6,6.1c-3.4,1.5-7.3,2.2-11.7,2.2c-4.5,0-8.4-0.7-11.8-2.2
		c-3.4-1.5-6.3-3.4-8.6-6s-4.1-5.5-5.3-8.9c-1.2-3.4-1.8-7-1.8-10.9c0-3.9,0.6-7.5,1.8-10.9c1.2-3.4,3-6.4,5.4-9
		c2.4-2.6,5.2-4.6,8.7-6.1C242.2,76.2,246.2,75.5,250.6,75.5z M268.7,103.7c0-2.9-0.4-5.6-1.1-8.1c-0.7-2.6-1.8-4.8-3.3-6.8
		c-1.5-1.9-3.4-3.5-5.7-4.6c-2.3-1.1-5-1.7-8.2-1.7c-3,0-5.7,0.6-8,1.8s-4.2,2.7-5.8,4.7c-1.6,2-2.7,4.2-3.5,6.8
		c-0.8,2.6-1.2,5.3-1.2,8s0.4,5.4,1.2,7.9c0.8,2.5,2,4.7,3.5,6.7c1.6,1.9,3.5,3.5,5.8,4.6c2.3,1.1,5.1,1.7,8.2,1.7
		c3.1,0,5.7-0.6,8-1.7s4.2-2.7,5.7-4.6c1.5-1.9,2.6-4.2,3.3-6.7C268.3,109.1,268.7,106.5,268.7,103.7z"/>
	<path class="st2" d="M328.8,76.8h8.6v40.8c0,2.3,0,4.5,0.1,6.5c0.1,2,0.2,4.2,0.3,6.3h-8.9l-0.2-7.1c-4,5.5-9.9,8.3-17.7,8.3
		c-2.6,0-5-0.3-7-0.9c-2-0.6-3.8-1.4-5.3-2.5s-2.7-2.3-3.7-3.7c-1-1.4-1.8-3-2.4-4.6c-0.6-1.6-1-3.3-1.3-5.1
		c-0.3-1.8-0.4-3.5-0.4-5.3V76.8h8.6v32.8c0,5,1,8.8,3.2,11.3c2.2,2.6,5.6,3.8,10.2,3.8c2.5,0,4.7-0.5,6.7-1.4
		c1.9-0.9,3.6-2.1,4.9-3.7s2.4-3.4,3.1-5.5c0.7-2.1,1-4.3,1-6.6V76.8z"/>
	<path class="st2" d="M363.8,130.4h-8.6V89.7c0-2.2,0-4.4-0.1-6.6c-0.1-2.2-0.1-4.3-0.2-6.3h8.6l0.3,8.1c1.5-3,3.4-5.3,6-6.9
		c2.5-1.6,5.3-2.5,8.4-2.5c2,0,3.9,0.2,5.6,0.6l0.1,8.1c-0.7-0.4-1.6-0.7-2.7-0.9c-1-0.2-2.2-0.3-3.3-0.3c-2.1,0-4,0.4-5.7,1.2
		c-1.7,0.8-3.2,2-4.4,3.5c-1.2,1.5-2.2,3.4-2.8,5.6c-0.7,2.2-1,4.6-1,7.4V130.4z"/>
	<path class="st2" d="M457.6,86.1c-1.9-1.3-4.1-2.2-6.8-2.8c-2.6-0.6-5.4-0.9-8.2-0.9c-1.6,0-3.1,0.2-4.4,0.5
		c-1.4,0.3-2.5,0.8-3.5,1.5c-1,0.6-1.8,1.4-2.3,2.4s-0.9,2-0.9,3.1c0,1.2,0.3,2.3,0.9,3.1c0.6,0.9,1.4,1.6,2.4,2.3
		c1,0.6,2.2,1.2,3.5,1.7c1.4,0.5,2.8,1,4.3,1.4c1.4,0.4,2.9,0.9,4.5,1.3s3.2,1,4.7,1.6c1.6,0.6,3.1,1.3,4.5,2.1s2.7,1.8,3.8,2.9
		c1.1,1.1,2,2.4,2.6,3.9c0.6,1.5,1,3.2,1,5.2c0,2.7-0.6,5.1-1.9,7.1c-1.3,2-2.9,3.7-5,5c-2.1,1.3-4.4,2.3-7.1,3
		c-2.6,0.7-5.4,1-8.2,1c-1.8,0-3.7-0.1-5.5-0.3c-1.8-0.2-3.5-0.6-5.2-1c-1.7-0.5-3.2-1.1-4.6-1.9c-1.4-0.8-2.6-1.7-3.6-2.9l2.3-7.1
		c0.9,1.1,2,2.1,3.3,2.9c1.3,0.8,2.6,1.5,4.1,2c1.4,0.5,2.9,0.9,4.5,1.1s3,0.3,4.5,0.3c2,0,3.7-0.2,5.4-0.5c1.6-0.4,3.1-0.9,4.3-1.6
		c1.2-0.7,2.1-1.6,2.8-2.7s1-2.3,1-3.7c0-1.6-0.4-2.9-1.2-3.9c-0.8-1-1.8-1.8-3.2-2.6c-1.4-0.7-3-1.3-4.9-1.9
		c-1.9-0.5-3.9-1.2-6.1-1.9c-2.6-0.8-5-1.7-7.1-2.6c-2.1-0.9-3.9-2-5.4-3.2c-1.5-1.2-2.6-2.6-3.4-4.3c-0.8-1.6-1.2-3.5-1.2-5.8
		c0-2.5,0.6-4.6,1.7-6.5c1.1-1.8,2.6-3.4,4.5-4.6c1.8-1.2,3.9-2.1,6.3-2.7c2.4-0.6,4.8-0.9,7.2-0.9c3.6,0,6.9,0.3,10,1
		c3.1,0.7,5.6,1.9,7.8,3.5L457.6,86.1z"/>
	<path class="st2" d="M477.6,76.8h8.6v53.6h-8.6V76.8z M486,54v8.1h-8V54H486z"/>
	<path class="st2" d="M507.9,82.4h-10.6v-5.6h10.6l0.3-14.2l8.4-2.5v16.7h13.4v5.6h-13.4v32c0,1.2,0,2.4,0.1,3.6
		c0.1,1.2,0.3,2.4,0.7,3.4s1,1.9,1.9,2.5s2,1,3.6,1c1.1,0,2.3-0.1,3.5-0.4c1.2-0.3,2.6-0.7,4-1.2l-0.1,6.4c-1.2,0.7-2.5,1.2-4,1.5
		c-1.4,0.3-3,0.4-4.9,0.4c-2.9,0-5.3-0.5-7-1.5c-1.8-1-3.1-2.3-4.1-4c-1-1.7-1.6-3.6-1.9-5.9c-0.3-2.2-0.5-4.6-0.5-7.1V82.4z"/>
	<path class="st2" d="M586.7,124.4c-2.9,2.5-6.1,4.3-9.6,5.5c-3.5,1.1-7.5,1.7-12,1.7c-4.2,0-8-0.7-11.3-2.1
		c-3.3-1.4-6.1-3.3-8.4-5.7c-2.3-2.5-4-5.4-5.2-8.8c-1.2-3.4-1.8-7.2-1.8-11.2c0-3.9,0.6-7.5,1.8-10.9c1.2-3.4,2.9-6.4,5.2-9
		c2.3-2.6,5-4.6,8.3-6.1c3.3-1.5,7-2.2,11.2-2.2c4.1,0,7.7,0.7,10.7,2c3,1.3,5.5,3.2,7.5,5.5c2,2.4,3.4,5.1,4.4,8.4
		s1.4,6.8,1.4,10.6c0,0.4,0,0.8,0,1.3c0,0.5,0,1-0.1,1.4h-41.1l0.2,2.4c0.2,2.6,0.7,5,1.6,7.2c0.9,2.2,2,4,3.5,5.6
		c1.5,1.6,3.3,2.8,5.5,3.6s4.6,1.3,7.3,1.3c3.7,0,7.1-0.6,10.1-1.9c3.1-1.3,5.8-3.1,8.2-5.5L586.7,124.4z M579.8,98.6l-0.1-0.7
		c-0.2-2.3-0.6-4.3-1.3-6.2c-0.7-1.9-1.7-3.5-2.9-4.9c-1.3-1.4-2.8-2.4-4.6-3.2c-1.8-0.7-3.8-1.1-6.1-1.1c-2.4,0-4.6,0.4-6.6,1.3
		c-1.9,0.9-3.6,2-5,3.5s-2.5,3.2-3.4,5.1c-0.9,2-1.5,4-1.8,6.2H579.8z"/>
	<path class="st2" d="M611.1,130.4h-8.6V89.7c0-1.6,0-3.2-0.1-4.7c0-1.5-0.1-2.9-0.1-4.2c-0.1-1.4-0.1-2.7-0.2-4h8.7l0.2,7.4
		c2.1-3,4.6-5.2,7.5-6.6c2.9-1.4,6.4-2.1,10.4-2.1c3.9,0,7.1,0.6,9.7,1.9c2.5,1.3,4.6,3.1,6,5.4c1.5,2.3,2.5,5.1,3.1,8.3
		c0.6,3.2,0.9,6.7,0.9,10.6v28.7h-8.6v-27.7c0-3-0.1-5.8-0.4-8.3c-0.3-2.5-0.8-4.6-1.7-6.4c-0.9-1.8-2.1-3.1-3.8-4.1
		s-3.9-1.4-6.7-1.4c-2.6,0-4.9,0.5-6.9,1.5c-2,1-3.7,2.2-5.1,3.7c-1.4,1.4-2.5,2.9-3.2,4.5c-0.8,1.6-1.1,3-1.1,4.2V130.4z"/>
	<path class="st2" d="M687.7,75.5c2.2,0,4.2,0.2,6,0.6c1.8,0.4,3.5,1,5,1.7c1.5,0.7,2.9,1.6,4.2,2.7c1.3,1.1,2.5,2.3,3.6,3.7
		l0.3-7.4h8.5L715.2,90v40.4h-8.6l0.1-7.5c-0.8,1.1-1.9,2.2-3.2,3.3c-1.3,1.1-2.7,2-4.3,2.8c-1.6,0.8-3.4,1.4-5.3,1.9
		c-1.9,0.5-4,0.7-6.1,0.7c-3,0-5.7-0.4-8.2-1.2c-2.4-0.8-4.6-1.9-6.5-3.2c-1.9-1.4-3.6-3-5-4.8c-1.4-1.8-2.6-3.8-3.5-6
		c-0.9-2.1-1.6-4.3-2-6.6c-0.5-2.3-0.7-4.5-0.7-6.8c0-3.4,0.5-6.8,1.6-10.1c1.1-3.3,2.7-6.3,4.8-8.8c2.1-2.6,4.8-4.6,8-6.2
		S683.4,75.5,687.7,75.5z M688.7,124.7c2.4,0,4.7-0.5,6.9-1.5c2.1-1,4-2.5,5.6-4.4c1.6-1.9,2.9-4.3,3.9-7.2c1-2.9,1.5-6.2,1.5-10
		c0-2.8-0.4-5.4-1.3-7.7c-0.9-2.3-2.1-4.4-3.6-6.1c-1.6-1.7-3.5-3-5.7-4c-2.2-0.9-4.8-1.4-7.5-1.4c-2.1,0-4,0.3-5.7,0.9
		c-1.7,0.6-3.2,1.4-4.5,2.4c-1.3,1-2.5,2.2-3.4,3.6c-1,1.4-1.8,2.8-2.4,4.4s-1.1,3.2-1.4,4.8c-0.3,1.7-0.4,3.3-0.4,5
		c0,1.6,0.1,3.2,0.3,4.9s0.6,3.3,1.1,4.9c0.5,1.6,1.2,3,2.1,4.4c0.9,1.4,2,2.6,3.4,3.6c1.3,1,2.9,1.8,4.8,2.5
		C684.1,124.4,686.2,124.7,688.7,124.7z"/>
	<path class="st2" d="M739.5,76.8l0.2,7.2c2.1-2.9,4.6-5.1,7.4-6.5c2.9-1.4,6.2-2.1,9.8-2.1c2,0,3.9,0.3,5.7,0.8
		c1.8,0.5,3.4,1.2,4.9,2.1c1.5,0.9,2.8,2,3.9,3.3c1.1,1.3,2,2.8,2.7,4.4c2-3.7,4.6-6.3,7.8-8c3.2-1.7,7.1-2.5,11.7-2.5
		c3.8,0,6.9,0.6,9.4,1.9c2.5,1.2,4.4,2.9,5.9,4.9c1.4,2,2.5,4.3,3,6.9c0.6,2.6,0.9,5.3,0.9,8v33.2h-8.6v-29.2c0-2.2-0.1-4.5-0.4-6.7
		c-0.3-2.2-0.8-4.2-1.7-6c-0.9-1.8-2.2-3.2-3.9-4.4c-1.7-1.1-4.1-1.7-7.1-1.7c-2.3,0-4.4,0.5-6.2,1.4c-1.8,1-3.4,2.2-4.6,3.8
		c-1.3,1.6-2.2,3.4-2.9,5.5c-0.7,2.1-1,4.2-1,6.5v30.7h-8.6V97.2c0-2-0.2-3.9-0.7-5.7c-0.5-1.8-1.3-3.4-2.3-4.7
		c-1.1-1.3-2.4-2.4-4.1-3.2c-1.7-0.8-3.7-1.2-6.1-1.2c-2.4,0-4.5,0.5-6.3,1.4c-1.8,0.9-3.4,2.2-4.6,3.7s-2.2,3.4-2.8,5.5
		c-0.6,2.1-1,4.3-1,6.6v30.7h-8.6V90.6c0-2.3,0-4.6-0.1-7c-0.1-2.4-0.1-4.6-0.2-6.8H739.5z"/>
	<path class="st2" d="M875.9,124.4c-2.9,2.5-6.1,4.3-9.6,5.5c-3.5,1.1-7.5,1.7-12,1.7c-4.2,0-8-0.7-11.3-2.1
		c-3.3-1.4-6.1-3.3-8.4-5.7c-2.3-2.5-4-5.4-5.2-8.8c-1.2-3.4-1.8-7.2-1.8-11.2c0-3.9,0.6-7.5,1.8-10.9c1.2-3.4,2.9-6.4,5.2-9
		c2.3-2.6,5-4.6,8.3-6.1c3.3-1.5,7-2.2,11.2-2.2c4.1,0,7.7,0.7,10.7,2c3,1.3,5.5,3.2,7.5,5.5c2,2.4,3.4,5.1,4.4,8.4
		s1.4,6.8,1.4,10.6c0,0.4,0,0.8,0,1.3c0,0.5,0,1-0.1,1.4h-41.1l0.2,2.4c0.2,2.6,0.7,5,1.6,7.2c0.9,2.2,2,4,3.5,5.6
		c1.5,1.6,3.3,2.8,5.5,3.6s4.6,1.3,7.3,1.3c3.7,0,7.1-0.6,10.1-1.9c3.1-1.3,5.8-3.1,8.2-5.5L875.9,124.4z M868.9,98.6l-0.1-0.7
		c-0.2-2.3-0.6-4.3-1.3-6.2c-0.7-1.9-1.7-3.5-2.9-4.9c-1.3-1.4-2.8-2.4-4.6-3.2c-1.8-0.7-3.8-1.1-6.1-1.1c-2.4,0-4.6,0.4-6.6,1.3
		c-1.9,0.9-3.6,2-5,3.5s-2.5,3.2-3.4,5.1c-0.9,2-1.5,4-1.8,6.2H868.9z"/>
</g>
</svg>
